# xmcd CD database file
#
# Track frame offsets:
#	150
#	22571
#	25884
#	45631
#	61369
#	77875
#	84241
#	107403
#	112967
#	130136
#	144830
#	151823
#	168026
#	183849
#	203574
#	215792
#	227551
#	235394
#
# Disc length: 3307 seconds
#
# Revision: 0
# Processed by: cddbd v1.5.2PL0 Copyright (c) Steve Scherf et al.
# Submitted via: CDex 1.51
#
DISCID=d20ce912
DTITLE=Sam Paglia - Night Club Tropez
DYEAR=2000
DGENRE=Jazz
TTITLE0=Lesson One
TTITLE1=Night Club Tropéz (Dedicated to Alberto Sordi)
TTITLE2=Strip Tease Organ
TTITLE3=Sweet Lavalamp
TTITLE4=Love Trap
TTITLE5=Naitropé Clebtropé
TTITLE6=Shelly Ann 
TTITLE7=Brand New Keyboard
TTITLE8=London Bossa
TTITLE9=Arturo's Birthday Party
TTITLE10=Continental '70
TTITLE11=Low Fi
TTITLE12=Night Club Reprise
TTITLE13=Saturday Morning TV
TTITLE14=One 4 My Car
TTITLE15=Soft Drink Jingle
TTITLE16=Flaminio Zagato
TTITLE17=Here We Are
EXTD=YEAR: 2000
EXTT0=
EXTT1=
EXTT2=
EXTT3=
EXTT4=
EXTT5=
EXTT6=
EXTT7=
EXTT8=
EXTT9=
EXTT10=
EXTT11=
EXTT12=
EXTT13=
EXTT14=
EXTT15=
EXTT16=
EXTT17=
PLAYORDER=
